<?xml version="1.0" encoding="UTF-8"?>
<svg id="Layer_1" data-name="Layer 1" xmlns="http://www.w3.org/2000/svg" viewBox="0 0 344.25 38.6">
  <defs>
    <style>
      .cls-1 {
        fill: #007abd;
        fill-rule: evenodd;
      }

      .cls-2 {
        fill: #fff;
      }
    </style>
  </defs>
  <g id="Dark">
    <path class="cls-1" d="M35.93,14.43v-4.45s-3.91,0-3.91,0l3.91,4.45h0ZM23.48,30.41c0,1.69.57,2.24,2.08,3.76,3.11,2.98,7.31,2.36,13.07,2.19-.95-4.09-2.19-8.67-2.39-12.86-2.24.46-12.76,3.88-12.76,6.91h0ZM13.2,14.17c.24,1.32,5.11,9.47,6.23,11.41l2.21,3.75c1.81-4.03,10.37-6.64,17.5-8.5L22.83,2.37c-2.43.83-10.87,7.9-9.63,11.8h0ZM12.22,16.11c.22.32,7.04,12.3,7.83,13.76l3.32,4.24-5.09-3.59L7.15,14.95l-2.4-.43,11.94,17.27,6.4,4.24c-.75-.05-6.46-1.68-6.96-2.16-3.79-5.23-8-10.72-11.77-15.97l-2.29-.16,12.91,17.7,2.84.86-4.4.05L2.05,21.2l-2.05.23c2.12,3.13,11.81,15.31,12.23,16.88h29.22c-1.36-4.58-3.14-10.76-3.14-15.36.83-.07,3.25-.96,4-.97l-4.19-4.89c-.47-.51-.25-.7-.25-2.04l.22-6.71h-7.14c-.38-.07-.58-.28-.82-.58L23.48,0l-2.2,1.36c-4.46,2.97-12.21,8.79-9.06,14.75h0Z"/>
    <g>
      <path class="cls-2" d="M52.74,20.78h1.31c.53,0,.96-.07,1.31-.22.35-.15.65-.38.9-.7l8.31-10.52c.35-.44.71-.75,1.09-.93.38-.17.86-.26,1.45-.26h4.83l-10.14,12.51c-.32.39-.62.71-.92.98-.29.26-.6.48-.94.65.46.17.87.4,1.24.71.37.31.73.69,1.07,1.17l10.45,14.1h-4.96c-.67,0-1.16-.09-1.49-.28-.33-.19-.6-.46-.82-.82l-8.52-11.12c-.28-.36-.59-.62-.94-.78-.35-.16-.84-.24-1.48-.24h-1.77v13.24h-5.6V8.14h5.6v12.64Z"/>
      <path class="cls-2" d="M102.48,38.27h-4.33c-.49,0-.89-.12-1.2-.36s-.54-.54-.68-.91l-2.25-6.14h-12.47l-2.25,6.14c-.11.32-.33.61-.66.87-.33.26-.73.4-1.2.4h-4.35l11.83-30.11h5.73l11.83,30.11ZM83,26.9h9.6l-3.67-10.02c-.17-.44-.35-.97-.55-1.57-.2-.6-.4-1.26-.59-1.97-.19.71-.39,1.37-.57,1.98-.19.61-.37,1.15-.55,1.6l-3.66,9.97Z"/>
      <path class="cls-2" d="M109.15,8.19c.17.02.32.06.45.12s.26.15.39.27c.12.12.26.27.42.47l15.8,20.14c-.06-.49-.09-.96-.11-1.43-.02-.46-.03-.9-.03-1.3V8.16h4.94v30.11h-2.89c-.44,0-.81-.07-1.1-.21-.29-.14-.58-.39-.85-.75l-15.74-20.05c.04.44.07.88.09,1.32.02.44.03.84.03,1.2v18.49h-4.94V8.16h2.94c.25,0,.46.01.62.03Z"/>
      <path class="cls-2" d="M163.81,23.22c0,2.21-.37,4.23-1.1,6.08-.74,1.85-1.77,3.44-3.1,4.77-1.33,1.33-2.94,2.37-4.81,3.1-1.87.74-3.95,1.1-6.23,1.1h-11.49V8.16h11.49c2.28,0,4.35.37,6.23,1.11,1.87.74,3.48,1.78,4.81,3.1,1.33,1.33,2.37,2.91,3.1,4.76s1.1,3.87,1.1,6.08ZM158.08,23.22c0-1.65-.22-3.13-.67-4.45-.44-1.31-1.08-2.42-1.89-3.33-.82-.91-1.82-1.61-2.99-2.09-1.17-.49-2.5-.73-3.97-.73h-5.85v21.2h5.85c1.47,0,2.79-.24,3.97-.73,1.17-.49,2.17-1.18,2.99-2.09.82-.91,1.45-2.02,1.89-3.33.44-1.31.67-2.79.67-4.45Z"/>
      <path class="cls-2" d="M179.92,26.57v11.7h-5.6v-11.7l-10.97-18.41h4.94c.49,0,.87.12,1.16.35.28.24.52.53.72.9l5.52,10.06c.32.6.6,1.16.83,1.7.24.53.45,1.06.65,1.57.18-.53.38-1.06.61-1.59s.5-1.09.82-1.68l5.48-10.06c.15-.31.38-.59.69-.85.3-.26.69-.4,1.17-.4h4.96l-10.95,18.41Z"/>
      <path class="cls-2" d="M225.66,23.22c0,2.21-.37,4.25-1.1,6.13-.73,1.88-1.77,3.51-3.1,4.88-1.33,1.37-2.94,2.45-4.81,3.22s-3.95,1.16-6.23,1.16-4.35-.38-6.24-1.16c-1.88-.77-3.49-1.84-4.83-3.22-1.34-1.37-2.38-3-3.11-4.88-.74-1.88-1.1-3.93-1.1-6.13s.37-4.25,1.1-6.13c.73-1.88,1.77-3.51,3.11-4.88,1.34-1.37,2.95-2.45,4.83-3.22,1.88-.77,3.96-1.16,6.24-1.16s4.35.39,6.23,1.17c1.87.78,3.48,1.85,4.81,3.22,1.33,1.37,2.37,2.99,3.1,4.87.74,1.88,1.1,3.93,1.1,6.13ZM219.92,23.22c0-1.65-.22-3.13-.65-4.45-.44-1.31-1.07-2.43-1.89-3.34s-1.81-1.62-2.99-2.1c-1.17-.49-2.49-.73-3.97-.73s-2.8.24-3.98.73c-1.18.49-2.18,1.19-3.01,2.1s-1.46,2.03-1.91,3.34c-.44,1.31-.67,2.79-.67,4.45s.22,3.13.67,4.45c.44,1.31,1.08,2.42,1.91,3.33s1.83,1.61,3.01,2.09c1.18.49,2.51.73,3.98.73s2.79-.24,3.97-.73c1.17-.49,2.17-1.18,2.99-2.09s1.45-2.02,1.89-3.33c.44-1.31.65-2.79.65-4.45Z"/>
      <path class="cls-2" d="M249.07,8.16v4.46h-13.35v8.91h11.26v4.48h-11.26v12.26h-5.64V8.16h18.99Z"/>
      <path class="cls-2" d="M272.45,8.16v4.46h-13.35v8.91h11.26v4.48h-11.26v12.26h-5.64V8.16h18.99Z"/>
      <path class="cls-2" d="M292.98,13.64c-.15.31-.33.52-.53.65s-.44.19-.72.19-.59-.11-.94-.32-.76-.46-1.23-.72c-.47-.26-1.02-.5-1.66-.72s-1.38-.32-2.24-.32c-.78,0-1.45.09-2.03.28s-1.06.45-1.46.78c-.4.33-.69.73-.89,1.2-.19.47-.29.98-.29,1.53,0,.71.2,1.3.59,1.77.4.47.92.87,1.57,1.21.65.33,1.4.63,2.23.9.83.26,1.68.54,2.55.84.87.3,1.72.65,2.55,1.04.83.4,1.57.9,2.23,1.5s1.18,1.34,1.57,2.22c.4.87.59,1.94.59,3.19,0,1.36-.23,2.63-.7,3.82s-1.14,2.22-2.04,3.1c-.89.88-1.99,1.57-3.28,2.08s-2.77.76-4.43.76c-.96,0-1.9-.09-2.83-.28-.93-.19-1.82-.45-2.68-.8-.85-.35-1.65-.76-2.4-1.25-.74-.49-1.41-1.03-1.99-1.62l1.62-2.69c.15-.19.34-.36.55-.49.22-.13.45-.2.72-.2.35,0,.72.14,1.13.43.4.28.88.6,1.43.95.55.35,1.19.66,1.94.95s1.63.43,2.68.43c1.6,0,2.83-.38,3.71-1.13s1.31-1.84,1.31-3.26c0-.79-.2-1.44-.59-1.94-.4-.5-.92-.92-1.57-1.26-.65-.34-1.4-.63-2.23-.86-.83-.24-1.68-.49-2.54-.77s-1.71-.61-2.54-1c-.83-.39-1.58-.89-2.23-1.52-.65-.62-1.18-1.41-1.57-2.34s-.59-2.09-.59-3.47c0-1.1.22-2.17.66-3.21.44-1.04,1.08-1.96,1.92-2.77.84-.8,1.87-1.45,3.09-1.94,1.22-.49,2.62-.73,4.19-.73,1.78,0,3.42.28,4.91.83s2.78,1.33,3.83,2.33l-1.37,2.64Z"/>
      <path class="cls-2" d="M318.18,8.16v4.46h-13.35v8.35h10.52v4.31h-10.52v8.52h13.35v4.48h-18.99V8.16h18.99Z"/>
      <path class="cls-2" d="M344.25,8.16v4.6h-9.06v25.51h-5.6V12.76h-9.1v-4.6h23.76Z"/>
    </g>
  </g>
  <g id="Light">
    <path class="cls-1" d="M35.93,14.43v-4.45s-3.91,0-3.91,0l3.91,4.45h0ZM23.48,30.41c0,1.69.57,2.24,2.08,3.76,3.11,2.98,7.31,2.36,13.07,2.19-.95-4.09-2.19-8.67-2.39-12.86-2.24.46-12.76,3.88-12.76,6.91h0ZM13.2,14.17c.24,1.32,5.11,9.47,6.23,11.41l2.21,3.75c1.81-4.03,10.37-6.64,17.5-8.5L22.83,2.37c-2.43.83-10.87,7.9-9.63,11.8h0ZM12.22,16.11c.22.32,7.04,12.3,7.83,13.76l3.32,4.24-5.09-3.59L7.15,14.95l-2.4-.43,11.94,17.27,6.4,4.24c-.75-.05-6.46-1.68-6.96-2.16-3.79-5.23-8-10.72-11.77-15.97l-2.29-.16,12.91,17.7,2.84.86-4.4.05L2.05,21.2l-2.05.23c2.12,3.13,11.81,15.31,12.23,16.88h29.22c-1.36-4.58-3.14-10.76-3.14-15.36.83-.07,3.25-.96,4-.97l-4.19-4.89c-.47-.51-.25-.7-.25-2.04l.22-6.71h-7.14c-.38-.07-.58-.28-.82-.58L23.48,0l-2.2,1.36c-4.46,2.97-12.21,8.79-9.06,14.75h0Z"/>
    <g>
      <path d="M52.74,20.78h1.31c.53,0,.96-.07,1.31-.22.35-.15.65-.38.9-.7l8.31-10.52c.35-.44.71-.75,1.09-.93.38-.17.86-.26,1.45-.26h4.83l-10.14,12.51c-.32.39-.62.71-.92.98-.29.26-.6.48-.94.65.46.17.87.4,1.24.71.37.31.73.69,1.07,1.17l10.45,14.1h-4.96c-.67,0-1.16-.09-1.49-.28-.33-.19-.6-.46-.82-.82l-8.52-11.12c-.28-.36-.59-.62-.94-.78-.35-.16-.84-.24-1.48-.24h-1.77v13.24h-5.6V8.14h5.6v12.64Z"/>
      <path d="M102.48,38.27h-4.33c-.49,0-.89-.12-1.2-.36s-.54-.54-.68-.91l-2.25-6.14h-12.47l-2.25,6.14c-.11.32-.33.61-.66.87-.33.26-.73.4-1.2.4h-4.35l11.83-30.11h5.73l11.83,30.11ZM83,26.9h9.6l-3.67-10.02c-.17-.44-.35-.97-.55-1.57-.2-.6-.4-1.26-.59-1.97-.19.71-.39,1.37-.57,1.98-.19.61-.37,1.15-.55,1.6l-3.66,9.97Z"/>
      <path d="M109.15,8.19c.17.02.32.06.45.12s.26.15.39.27c.12.12.26.27.42.47l15.8,20.14c-.06-.49-.09-.96-.11-1.43-.02-.46-.03-.9-.03-1.3V8.16h4.94v30.11h-2.89c-.44,0-.81-.07-1.1-.21-.29-.14-.58-.39-.85-.75l-15.74-20.05c.04.44.07.88.09,1.32.02.44.03.84.03,1.2v18.49h-4.94V8.16h2.94c.25,0,.46.01.62.03Z"/>
      <path d="M163.81,23.22c0,2.21-.37,4.23-1.1,6.08-.74,1.85-1.77,3.44-3.1,4.77-1.33,1.33-2.94,2.37-4.81,3.1-1.87.74-3.95,1.1-6.23,1.1h-11.49V8.16h11.49c2.28,0,4.35.37,6.23,1.11,1.87.74,3.48,1.78,4.81,3.1,1.33,1.33,2.37,2.91,3.1,4.76s1.1,3.87,1.1,6.08ZM158.08,23.22c0-1.65-.22-3.13-.67-4.45-.44-1.31-1.08-2.42-1.89-3.33-.82-.91-1.82-1.61-2.99-2.09-1.17-.49-2.5-.73-3.97-.73h-5.85v21.2h5.85c1.47,0,2.79-.24,3.97-.73,1.17-.49,2.17-1.18,2.99-2.09.82-.91,1.45-2.02,1.89-3.33.44-1.31.67-2.79.67-4.45Z"/>
      <path d="M179.92,26.57v11.7h-5.6v-11.7l-10.97-18.41h4.94c.49,0,.87.12,1.16.35.28.24.52.53.72.9l5.52,10.06c.32.6.6,1.16.83,1.7.24.53.45,1.06.65,1.57.18-.53.38-1.06.61-1.59s.5-1.09.82-1.68l5.48-10.06c.15-.31.38-.59.69-.85.3-.26.69-.4,1.17-.4h4.96l-10.95,18.41Z"/>
      <path d="M225.66,23.22c0,2.21-.37,4.25-1.1,6.13-.73,1.88-1.77,3.51-3.1,4.88-1.33,1.37-2.94,2.45-4.81,3.22s-3.95,1.16-6.23,1.16-4.35-.38-6.24-1.16c-1.88-.77-3.49-1.84-4.83-3.22-1.34-1.37-2.38-3-3.11-4.88-.74-1.88-1.1-3.93-1.1-6.13s.37-4.25,1.1-6.13c.73-1.88,1.77-3.51,3.11-4.88,1.34-1.37,2.95-2.45,4.83-3.22,1.88-.77,3.96-1.16,6.24-1.16s4.35.39,6.23,1.17c1.87.78,3.48,1.85,4.81,3.22,1.33,1.37,2.37,2.99,3.1,4.87.74,1.88,1.1,3.93,1.1,6.13ZM219.92,23.22c0-1.65-.22-3.13-.65-4.45-.44-1.31-1.07-2.43-1.89-3.34s-1.81-1.62-2.99-2.1c-1.17-.49-2.49-.73-3.97-.73s-2.8.24-3.98.73c-1.18.49-2.18,1.19-3.01,2.1s-1.46,2.03-1.91,3.34c-.44,1.31-.67,2.79-.67,4.45s.22,3.13.67,4.45c.44,1.31,1.08,2.42,1.91,3.33s1.83,1.61,3.01,2.09c1.18.49,2.51.73,3.98.73s2.79-.24,3.97-.73c1.17-.49,2.17-1.18,2.99-2.09s1.45-2.02,1.89-3.33c.44-1.31.65-2.79.65-4.45Z"/>
      <path d="M249.07,8.16v4.46h-13.35v8.91h11.26v4.48h-11.26v12.26h-5.64V8.16h18.99Z"/>
      <path d="M272.45,8.16v4.46h-13.35v8.91h11.26v4.48h-11.26v12.26h-5.64V8.16h18.99Z"/>
      <path d="M292.98,13.64c-.15.31-.33.52-.53.65s-.44.19-.72.19-.59-.11-.94-.32-.76-.46-1.23-.72c-.47-.26-1.02-.5-1.66-.72s-1.38-.32-2.24-.32c-.78,0-1.45.09-2.03.28s-1.06.45-1.46.78c-.4.33-.69.73-.89,1.2-.19.47-.29.98-.29,1.53,0,.71.2,1.3.59,1.77.4.47.92.87,1.57,1.21.65.33,1.4.63,2.23.9.83.26,1.68.54,2.55.84.87.3,1.72.65,2.55,1.04.83.4,1.57.9,2.23,1.5s1.18,1.34,1.57,2.22c.4.87.59,1.94.59,3.19,0,1.36-.23,2.63-.7,3.82s-1.14,2.22-2.04,3.1c-.89.88-1.99,1.57-3.28,2.08s-2.77.76-4.43.76c-.96,0-1.9-.09-2.83-.28-.93-.19-1.82-.45-2.68-.8-.85-.35-1.65-.76-2.4-1.25-.74-.49-1.41-1.03-1.99-1.62l1.62-2.69c.15-.19.34-.36.55-.49.22-.13.45-.2.72-.2.35,0,.72.14,1.13.43.4.28.88.6,1.43.95.55.35,1.19.66,1.94.95s1.63.43,2.68.43c1.6,0,2.83-.38,3.71-1.13s1.31-1.84,1.31-3.26c0-.79-.2-1.44-.59-1.94-.4-.5-.92-.92-1.57-1.26-.65-.34-1.4-.63-2.23-.86-.83-.24-1.68-.49-2.54-.77s-1.71-.61-2.54-1c-.83-.39-1.58-.89-2.23-1.52-.65-.62-1.18-1.41-1.57-2.34s-.59-2.09-.59-3.47c0-1.1.22-2.17.66-3.21.44-1.04,1.08-1.96,1.92-2.77.84-.8,1.87-1.45,3.09-1.94,1.22-.49,2.62-.73,4.19-.73,1.78,0,3.42.28,4.91.83s2.78,1.33,3.83,2.33l-1.37,2.64Z"/>
      <path d="M318.18,8.16v4.46h-13.35v8.35h10.52v4.31h-10.52v8.52h13.35v4.48h-18.99V8.16h18.99Z"/>
      <path d="M344.25,8.16v4.6h-9.06v25.51h-5.6V12.76h-9.1v-4.6h23.76Z"/>
    </g>
  </g>
</svg>